REM MD5 a09d7976c9f25447195c342cde4b8ab4
FILE "Lost World, The - Jurassic Park (USA).bin" BINARY
  TRACK 01 MODE2/2352
    INDEX 01 00:00:00
  TRACK 02 AUDIO
    INDEX 00 24:47:63
    INDEX 01 24:49:63
  TRACK 03 AUDIO
    INDEX 00 67:57:54
    INDEX 01 67:59:54
REM LEADOUT 68:59:54
